# xmcd
# 
# Track frame offsets:
#     150
#     21461
#     38779
#     59122
#     99229
#     111833
#     139894
#     165826
#     183134
#     197540
#     208165
#     225569
#     240400
#     247716
# 
# Disc length: 3524
# 
# Revision: 7
# Processed by: cddbd v1.5.2PL0 Copyright (c) Steve Scherf et al.
# Submitted via: fre:ac v1.0.27
# 
DISCID=b20dc20e
DTITLE=Ian Hunter - Ian Hunter (30th Anniversary Edition)
DYEAR=2005
DGENRE=Rock
TTITLE0=Once Bitten Twice Shy
TTITLE1=Who Do You Love
TTITLE2=Lounge Lizard
TTITLE3=Boy
TTITLE4=3,000 Miles From Here
TTITLE5=The Truth, The Whole Truth, Nuthin' But The Thruth
TTITLE6=It Ain't Easy When You Fall - Shades Off
TTITLE7=I Get So Excited
TTITLE8=Colwater High (Session Out-take)
TTITLE9=One Fine Day (Session Out-take)
TTITLE10=Once Bitten Twice Shy (Single Version)
TTITLE11=Who Do You Love (Single Version)
TTITLE12=Shades Off (Poem)
TTITLE13=Boy (Single Version)
EXTD=
EXTT0=
EXTT1=
EXTT2=
EXTT3=
EXTT4=
EXTT5=
EXTT6=
EXTT7=
EXTT8=
EXTT9=
EXTT10=
EXTT11=
EXTT12=
EXTT13=
PLAYORDER=
